<?xml version="1.0" standalone="no"?>
<!DOCTYPE svg PUBLIC "-//W3C//DTD SVG 20010904//EN"
 "http://www.w3.org/TR/2001/REC-SVG-20010904/DTD/svg10.dtd">
<svg version="1.0" xmlns="http://www.w3.org/2000/svg"
 width="636.000000pt" height="636.000000pt" viewBox="0 0 636.000000 636.000000"
 preserveAspectRatio="xMidYMid meet">
<metadata>
Created by potrace 1.11, written by Peter Selinger 2001-2013
</metadata>
<g transform="translate(0.000000,636.000000) scale(0.100000,-0.100000)"
fill="#000000" stroke="none">
<path d="M2875 5284 c-443 -44 -686 -87 -972 -173 -280 -85 -443 -152 -734
-304 -179 -93 -240 -130 -229 -140 55 -47 364 -215 520 -282 572 -249 1277
-370 1941 -336 646 34 1197 172 1700 427 69 35 133 64 141 64 27 0 220 -141
336 -244 61 -54 65 -56 120 -56 58 0 154 -12 205 -25 20 -5 27 -4 27 7 0 24
-257 267 -377 358 -62 46 -113 87 -113 90 0 4 25 24 55 44 140 93 445 374 416
384 -6 2 -42 -1 -80 -7 -39 -6 -100 -11 -136 -11 l-66 0 -107 -87 c-59 -49
-146 -114 -194 -147 l-86 -58 -139 70 c-428 216 -866 343 -1413 408 -128 15
-712 28 -815 18z m-982 -664 c40 -45 37 -92 -8 -137 -32 -32 -39 -35 -78 -30
-100 14 -128 135 -43 189 43 26 93 18 129 -22z"/>
<path d="M995 3821 c-80 -13 -135 -31 -200 -63 -219 -111 -355 -330 -355 -573
0 -291 196 -545 481 -621 78 -20 223 -23 299 -5 64 16 184 69 219 97 l23 20
-31 47 c-86 126 -141 307 -141 462 0 155 55 336 141 462 l31 47 -23 20 c-32
26 -154 81 -209 94 -66 16 -178 22 -235 13z"/>
<path d="M2070 3824 c-97 -16 -145 -31 -219 -66 -154 -74 -285 -230 -337 -403
-25 -82 -25 -258 0 -340 52 -173 183 -330 337 -403 108 -51 172 -66 284 -65
106 0 192 21 285 68 98 49 98 49 42 142 -61 101 -97 209 -113 339 -22 177 23
375 122 533 32 52 37 66 27 78 -19 23 -139 80 -204 97 -64 16 -184 27 -224 20z"/>
<path d="M3110 3823 c-19 -2 -71 -15 -116 -28 -288 -87 -482 -384 -444 -682
26 -200 121 -353 289 -464 198 -131 468 -138 667 -18 29 18 54 37 54 42 0 5
-18 39 -40 75 -83 140 -120 275 -120 437 0 162 37 297 120 437 22 36 40 70 40
75 0 16 -109 75 -182 98 -73 23 -202 37 -268 28z"/>
<path d="M4155 3821 c-253 -41 -453 -210 -528 -446 -18 -56 -22 -94 -22 -190
0 -96 4 -134 22 -190 66 -208 241 -374 453 -431 79 -20 224 -23 300 -5 64 16
167 60 211 91 l30 22 -21 31 c-38 57 -108 210 -126 277 -13 48 -18 102 -18
205 0 103 5 157 18 205 18 67 88 220 126 277 l21 31 -30 22 c-41 29 -146 75
-201 88 -66 16 -178 22 -235 13z"/>
<path d="M5230 3824 c-97 -16 -145 -31 -220 -66 -169 -81 -306 -258 -346 -448
-58 -276 91 -576 348 -699 107 -50 172 -65 283 -64 353 2 635 285 635 638 0
341 -260 615 -605 639 -38 2 -81 2 -95 0z"/>
<path d="M2870 2334 c-19 -2 -84 -8 -145 -14 -513 -48 -1020 -190 -1445 -405
-81 -41 -155 -75 -164 -75 -29 0 -206 129 -324 234 -61 54 -65 56 -120 56 -58
0 -154 12 -204 25 -21 5 -28 4 -28 -8 0 -23 266 -275 372 -352 53 -38 97 -77
97 -85 0 -8 -44 -46 -97 -85 -106 -77 -372 -329 -372 -352 0 -12 7 -13 28 -8
58 15 140 25 199 25 61 0 63 1 125 56 118 106 296 234 324 234 9 0 78 -31 153
-69 448 -227 933 -362 1476 -412 182 -17 271 -19 515 -16 176 3 350 12 430 21
552 65 1006 198 1433 418 134 69 316 178 317 190 0 11 -148 98 -325 189 -427
220 -855 345 -1420 415 -113 14 -738 28 -825 18z m1757 -449 c32 -37 38 -71
20 -111 -34 -70 -122 -82 -171 -23 -39 45 -35 92 9 136 32 32 39 35 78 30 28
-4 49 -14 64 -32z"/>
</g>
</svg>
